<mxfile host="app.diagrams.net" modified="2023-11-24T14:45:06.411Z" agent="Mozilla/5.0 (Windows NT 10.0; Win64; x64; rv:109.0) Gecko/20100101 Firefox/115.0" etag="YXW0Kqpx5v7IQFsbfV6M" version="22.1.3" type="github">
  <diagram name="Seite-1" id="e5UgyrAEHrOP4zqYlOZB">
    <mxGraphModel dx="1195" dy="605" grid="1" gridSize="10" guides="1" tooltips="1" connect="1" arrows="1" fold="1" page="1" pageScale="1" pageWidth="827" pageHeight="1169" math="0" shadow="0">
      <root>
        <mxCell id="0" />
        <mxCell id="1" parent="0" />
        <mxCell id="A_GgksQ0xEa6116n2t8S-5" style="edgeStyle=orthogonalEdgeStyle;rounded=0;orthogonalLoop=1;jettySize=auto;html=1;exitX=0.5;exitY=1;exitDx=0;exitDy=0;" edge="1" parent="1" source="A_GgksQ0xEa6116n2t8S-4">
          <mxGeometry relative="1" as="geometry">
            <mxPoint x="240" y="320" as="targetPoint" />
          </mxGeometry>
        </mxCell>
        <mxCell id="A_GgksQ0xEa6116n2t8S-4" value="&lt;div&gt;&lt;b style=&quot;font-size: 18px;&quot;&gt;TCP/IP Handler&lt;/b&gt;&lt;/div&gt;&lt;br&gt;Multithreading/Shared Memory" style="rounded=0;whiteSpace=wrap;html=1;verticalAlign=top;" vertex="1" parent="1">
          <mxGeometry x="30" y="20" width="420" height="210" as="geometry" />
        </mxCell>
        <mxCell id="A_GgksQ0xEa6116n2t8S-1" value="TCP/IP LISTEN TO /odom" style="rounded=0;whiteSpace=wrap;html=1;" vertex="1" parent="1">
          <mxGeometry x="320" y="130" width="120" height="60" as="geometry" />
        </mxCell>
        <mxCell id="A_GgksQ0xEa6116n2t8S-2" value="TCP/IP SEND TO /cmd_vel" style="rounded=0;whiteSpace=wrap;html=1;" vertex="1" parent="1">
          <mxGeometry x="40" y="130" width="120" height="60" as="geometry" />
        </mxCell>
        <mxCell id="A_GgksQ0xEa6116n2t8S-3" value="TCP/IP LISTEN TO /scan" style="rounded=0;whiteSpace=wrap;html=1;" vertex="1" parent="1">
          <mxGeometry x="180" y="130" width="120" height="60" as="geometry" />
        </mxCell>
      </root>
    </mxGraphModel>
  </diagram>
</mxfile>
